PathFileType	4	(X/Y/Z)	c:/Users/goper/Files/vsCode/490R/osim_files/A01/A01_Slow_01.trc
DataRate	CameraRate	NumFrames	NumMarkers	Units                	OrigDataRate	OrigDataStartFrame	OrigNumFrames
120.00	120.00	7	36	mm	120.0	1497	1710
                Frame#	Time	Mobility_markerset:LPSIS			Mobility_markerset:LASIS			Mobility_markerset:LTH1			Mobility_markerset:LTH2			Mobility_markerset:LTH3			Mobility_markerset:LTH4			Mobility_markerset:LLFE			Mobility_markerset:LMFE			Mobility_markerset:LSH1			Mobility_markerset:LSH2			Mobility_markerset:LSH3			Mobility_markerset:LSH4			Mobility_markerset:LLMAL			Mobility_markerset:LMMAL			Mobility_markerset:LCAL			Mobility_markerset:LMTP5			Mobility_markerset:LTOE			Mobility_markerset:LMTP1			Mobility_markerset:RPSIS			Mobility_markerset:RASIS			Mobility_markerset:RTH1			Mobility_markerset:RTH2			Mobility_markerset:RTH3			Mobility_markerset:RTH4			Mobility_markerset:RLFE			Mobility_markerset:RMFE			Mobility_markerset:RSH1			Mobility_markerset:RSH2			Mobility_markerset:RSH3			Mobility_markerset:RSH4			Mobility_markerset:RLMAL			Mobility_markerset:RMMAL			Mobility_markerset:RCAL			Mobility_markerset:RMTP1			Mobility_markerset:RTOE			Mobility_markerset:RMTP5		
		X1	Y1	Z1	X2	Y2	Z2	X3	Y3	Z3	X4	Y4	Z4	X5	Y5	Z5	X6	Y6	Z6	X7	Y7	Z7	X8	Y8	Z8	X9	Y9	Z9	X10	Y10	Z10	X11	Y11	Z11	X12	Y12	Z12	X13	Y13	Z13	X14	Y14	Z14	X15	Y15	Z15	X16	Y16	Z16	X17	Y17	Z17	X18	Y18	Z18	X19	Y19	Z19	X20	Y20	Z20	X21	Y21	Z21	X22	Y22	Z22	X23	Y23	Z23	X24	Y24	Z24	X25	Y25	Z25	X26	Y26	Z26	X27	Y27	Z27	X28	Y28	Z28	X29	Y29	Z29	X30	Y30	Z30	X31	Y31	Z31	X32	Y32	Z32	X33	Y33	Z33	X34	Y34	Z34	X35	Y35	Z35	X36	Y36	Z36

1497	12.46667	-3889.88965	1034.88391	1326.43726	-3638.55664	998.71075	1335.54236	-3645.43213	679.18109	1283.82483	-3629.12671	638.24200	1302.27893	0.00000	0.00000	0.00000	0.00000	0.00000	0.00000	0.00000	0.00000	0.00000	-3530.30078	487.38263	1459.01721	-3544.56421	378.66837	1407.04590	0.00000	0.00000	0.00000	-3603.64038	370.22537	1387.15588	-3594.16626	324.99692	1390.31091	-3541.31006	89.65733	1445.32092	-3573.20947	90.71089	1521.32239	-3622.74438	51.51372	1465.05066	-3396.03125	64.75001	1470.35449	-3391.85254	93.69871	1540.64624	-3423.77612	76.49091	1566.93726	-3923.95923	1038.09924	1421.97815	-3744.94019	964.41455	1575.11707	-3964.02173	674.96326	1553.91077	-3960.64233	631.44214	1548.29834	0.00000	0.00000	0.00000	-3914.81885	626.61731	1570.17236	-3949.93506	487.76764	1517.12976	0.00000	0.00000	0.00000	-4109.79297	358.24722	1430.92554	-4128.24707	318.37921	1421.53540	-4071.42114	326.62396	1463.47278	-4093.44067	289.91519	1449.88025	-4180.47412	153.92612	1363.49585	-4105.97559	150.00859	1312.98840	-4198.01562	145.81631	1287.58032	0.00000	0.00000	0.00000	-4048.53687	54.99588	1432.42078	0.00000	0.00000	0.00000
1498	12.47500	-3880.83496	1035.23877	1329.07239	-3629.34058	999.15723	1339.26758	-3638.50757	679.61926	1286.24512	-3622.47437	638.61121	1304.48999	0.00000	0.00000	0.00000	-3583.03345	661.76221	1328.64648	0.00000	0.00000	0.00000	-3524.29956	487.15704	1460.78870	-3540.40991	377.97256	1408.24048	0.00000	0.00000	0.00000	-3599.56567	370.16006	1388.22717	-3590.43872	324.73853	1391.38672	-3540.26318	89.11673	1445.79309	-3572.22290	90.32621	1521.48206	-3622.62231	51.47281	1465.81531	-3395.35205	62.55352	1470.84009	-3391.10352	91.04885	1541.24304	-3423.04199	74.14726	1567.41357	-3915.03735	1037.97278	1424.63464	-3736.45557	964.28973	1578.19275	-3955.07397	674.82318	1557.70422	-3951.61743	631.27698	1552.30200	-3901.56079	672.12811	1584.56055	-3905.97998	626.71649	1574.19446	-3938.63354	485.45020	1519.94470	0.00000	0.00000	0.00000	-4103.16992	360.96033	1434.55603	-4122.19873	321.38501	1424.99927	-4065.39307	328.53796	1467.06567	-4086.99414	291.44958	1451.88794	-4177.17773	157.99611	1366.35620	-4102.69922	153.13559	1315.97229	-4194.42773	151.52538	1290.30884	0.00000	0.00000	0.00000	0.00000	0.00000	0.00000	0.00000	0.00000	0.00000
1499	12.48333	-3871.69702	1035.87256	1331.60254	-3620.96167	999.58789	1343.13196	-3631.92700	680.19501	1288.69006	-3615.72583	638.94061	1306.58459	0.00000	0.00000	0.00000	0.00000	0.00000	0.00000	0.00000	0.00000	0.00000	-3518.14526	486.92532	1462.54736	-3536.47095	377.60086	1409.19885	0.00000	0.00000	0.00000	-3595.40015	370.05643	1389.40344	-3586.84790	324.64105	1392.32910	-3539.15503	88.63323	1446.14941	-3571.17993	89.90578	1521.64954	-3622.09595	51.88171	1466.33569	-3394.60107	59.98161	1471.45862	-3389.68237	88.09161	1542.01282	-3422.17773	71.52261	1568.03564	-3906.04297	1037.90881	1427.21277	-3727.44995	964.42328	1581.02576	-3945.75098	674.73712	1561.68921	-3942.24561	631.14819	1556.57336	-3892.24902	672.17365	1588.66394	-3896.45020	626.67822	1578.56445	-3931.95728	487.45035	1526.29797	0.00000	0.00000	0.00000	-4095.89771	363.85748	1438.40601	-4115.68604	324.68765	1428.68201	-4058.83179	330.59735	1470.91882	-4081.08984	294.02066	1455.63428	-4173.41553	162.32774	1369.49878	-4099.01807	156.41930	1319.32812	-4190.21338	157.63670	1293.37134	0.00000	0.00000	0.00000	-1413.03369	1310.39062	2842.18555	0.00000	0.00000	0.00000
1500	12.49167	-3862.57471	1036.70825	1334.16589	-3611.55591	1000.38965	1346.69666	-3625.35986	680.81866	1291.04028	-3609.18042	639.36591	1308.51184	0.00000	0.00000	0.00000	0.00000	0.00000	0.00000	0.00000	0.00000	0.00000	-3512.03589	486.74432	1464.31885	-3531.96484	376.55182	1410.63708	0.00000	0.00000	0.00000	-3591.19580	370.00894	1390.57397	-3583.16357	324.50266	1393.31335	-3538.16357	88.10873	1446.45386	-3570.12598	89.61782	1521.78674	-3621.57642	52.21656	1466.45728	-3394.13721	57.65387	1472.19568	-3388.55371	85.49670	1542.45471	-3421.32886	69.23826	1568.46301	-3897.15283	1038.06360	1429.79797	-3719.04565	964.61224	1583.86938	-3935.99365	674.57050	1565.92383	-3932.36792	630.95386	1561.13721	0.00000	0.00000	0.00000	-3886.59326	626.86719	1583.15771	-3919.58105	485.26416	1529.88696	0.00000	0.00000	0.00000	-4087.92603	366.88928	1442.52222	-4108.46875	328.18704	1432.63635	-4051.79639	332.93173	1475.17822	-4075.59741	297.64172	1461.06116	-4169.05420	166.84981	1372.98169	-4094.65576	159.73196	1323.04211	-4185.31445	164.19487	1296.81152	0.00000	0.00000	0.00000	0.00000	0.00000	0.00000	-4130.47412	44.29710	1448.61462
1501	12.50000	-3853.37720	1037.76709	1336.79260	-3602.80054	1001.09009	1350.17944	-3618.80713	681.24506	1293.21643	-3602.78906	639.59753	1310.31677	0.00000	0.00000	0.00000	-3562.61768	661.56158	1333.88354	0.00000	0.00000	0.00000	-3505.50513	486.33731	1466.48596	-3527.74561	375.95251	1411.68530	0.00000	0.00000	0.00000	-3587.21240	370.16208	1391.54688	-3579.73779	324.52512	1394.17236	-3537.19043	87.67424	1446.72180	-3569.17407	89.37838	1521.83301	-3621.14404	52.40781	1466.55994	-3393.29614	55.41453	1471.89978	-3387.59863	83.14395	1542.59705	-3420.53809	67.13584	1568.49817	-3888.16895	1038.24390	1432.37402	-3710.47388	965.15466	1586.64197	-3925.76904	674.30499	1570.44067	-3921.97412	630.69916	1565.99573	-3872.14429	672.34442	1597.43921	-3876.24902	626.97754	1588.03979	-3909.05396	485.12451	1535.67517	0.00000	0.00000	0.00000	-4079.20410	370.10593	1446.98389	-4100.52344	331.84848	1436.87122	-4044.01685	335.17838	1479.86682	-4068.50171	300.55023	1465.57971	-4164.02588	171.75194	1376.71619	-4089.59985	163.22926	1327.13635	-4179.61084	171.22926	1300.66833	0.00000	0.00000	0.00000	0.00000	0.00000	0.00000	-4129.42432	45.53440	1449.41492
1502	12.50833	-3844.23657	1039.02991	1339.50281	-3593.09644	1002.18762	1353.34058	-3612.27710	681.62555	1295.15405	-3596.64209	639.91785	1312.16956	0.00000	0.00000	0.00000	-3556.05664	661.26764	1335.17786	0.00000	0.00000	0.00000	-3498.77563	485.61533	1469.10071	-3523.58691	375.30829	1412.67493	0.00000	0.00000	0.00000	-3583.17236	370.25381	1392.62622	-3576.13428	324.47391	1395.10242	-3536.28027	87.29810	1446.92480	-3568.21411	89.08266	1521.96289	-3620.73022	52.72317	1466.66431	-3392.74390	53.34987	1472.00940	-3386.73389	80.81514	1542.80542	-3419.42334	64.80350	1568.99866	-3879.32422	1038.70312	1434.96912	-3701.66089	965.90503	1589.21362	-3915.00562	674.03552	1575.22241	-3911.07837	630.28845	1571.27222	-3861.42676	672.43451	1602.25830	-3863.15381	626.86810	1591.86548	-3899.91602	486.70721	1543.55139	0.00000	0.00000	0.00000	-4069.65894	373.38205	1451.90479	-4091.72510	335.57388	1441.62500	-4035.57520	337.67313	1485.02344	-4060.67969	303.49738	1470.51587	-4158.07275	176.93539	1380.85754	-4083.48071	166.42982	1331.66248	-4173.01514	178.66783	1304.86292	0.00000	0.00000	0.00000	0.00000	0.00000	0.00000	-4128.08350	47.12905	1450.28870
1503	12.51667	-3835.06787	1040.30896	1342.28748	-3584.30640	1003.22205	1356.54956	-3605.87329	681.90240	1296.85059	-3590.78711	639.90356	1313.97644	0.00000	0.00000	0.00000	0.00000	0.00000	0.00000	0.00000	0.00000	0.00000	0.00000	0.00000	0.00000	-3519.48340	374.65622	1413.65955	0.00000	0.00000	0.00000	-3579.02808	370.20908	1393.50073	-3572.64551	324.38840	1395.92407	-3535.39258	86.96816	1447.16650	-3567.26294	88.89837	1522.04150	-3620.34448	53.03066	1466.74060	-3392.07446	50.99750	1472.41052	-3385.83057	78.38977	1543.12354	-3418.73779	62.72670	1569.31921	-3870.56836	1039.28674	1437.60168	-3692.79102	966.83643	1591.65857	-3903.91162	673.49335	1580.41809	-3899.73462	629.72656	1576.89172	-3850.25293	672.30878	1607.43689	-3851.74634	626.81439	1597.50562	-3885.59448	484.47351	1548.90881	0.00000	0.00000	0.00000	-4059.22925	376.48065	1457.30542	-4082.14624	339.27893	1446.74023	-4026.31909	339.87436	1490.62366	-4052.13501	306.43759	1475.83496	-4151.29102	182.42783	1385.17053	-4077.16187	170.79152	1336.17444	-4165.44727	186.45769	1309.33765	0.00000	0.00000	0.00000	0.00000	0.00000	0.00000	-4126.46826	49.30392	1451.28467
